# xmcd
#
# Track frame offsets:
#	225
#	13747
#	34730
#	57025
#	72640
#	90797
#	101977
#	122630
#	135706
#	152662
#	169030
#	182609
#	201203
#	216638
#	229803
#	240174
#
# Disc length: 3356 seconds
#
# Revision: 0
# Processed by: cddbd v1.4PL0 Copyright (c) Steve Scherf et al.
# Submitted via: dBpowerAMP V4.0
#
DISCID=da0d1910
DTITLE=Ike and Tina Turner - Legendary Hits - Disk2
DYEAR=1999
DGENRE=Pop
TTITLE0=Get Back
TTITLE1=Humpty Dumpty
TTITLE2=Proud Mary
TTITLE3=Livin' For The City
TTITLE4=Don't Look Back
TTITLE5=Sexy Ida
TTITLE6=Feel It/Knock On Wood
TTITLE7=I Wanna Take You Higher
TTITLE8=I Got It Ready For You
TTITLE9=Early In The Morning
TTITLE10=Rockin' And Rollin' 
TTITLE11=Something
TTITLE12=Baby, Take A Walk With Me
TTITLE13=You Must Believe In Me (Live Version)
TTITLE14=Keep On Pushin' (Live Version)
TTITLE15=Twist And Shout (Live Version)
EXTD=
EXTT0=
EXTT1=
EXTT2=
EXTT3=
EXTT4=
EXTT5=
EXTT6=
EXTT7=
EXTT8=
EXTT9=
EXTT10=
EXTT11=
EXTT12=
EXTT13=
EXTT14=
EXTT15=
PLAYORDER=
